<svg width="328" height="94" viewBox="0 0 328 94" fill="none" xmlns="http://www.w3.org/2000/svg">
<path d="M16.8354 45.6365C7.53749 45.6365 -2.96957e-06 38.1067 -2.96957e-06 28.8183C-2.96957e-06 19.5298 7.53749 12.0001 16.8354 12.0001C26.1334 12.0001 33.6709 19.5298 33.6709 28.8183C33.6709 38.1067 26.1334 45.6365 16.8354 45.6365Z" fill="#1A202C"/>
<path d="M16.8354 82C7.53749 82 -2.96957e-06 74.4702 -2.96957e-06 65.1818C-2.96957e-06 55.8934 7.53749 48.3636 16.8354 48.3636C26.1334 48.3636 33.6709 55.8934 33.6709 65.1818C33.6709 74.4702 26.1334 82 16.8354 82Z" fill="#1A202C"/>
<path d="M52.7218 45.6365C43.6686 45.6365 36.3294 38.1067 36.3294 28.8183C36.3294 19.5298 43.6686 12.0001 52.7218 12.0001C61.7751 12.0001 69.1143 19.5298 69.1143 28.8183C69.1143 38.1067 61.7751 45.6365 52.7218 45.6365Z" fill="#1A202C"/>
<path d="M70 82H52.7215C43.1789 82 35.443 74.2667 35.443 64.7272C35.443 55.1878 43.1789 47.4545 52.7215 47.4545C62.2642 47.4545 70 55.1878 70 64.7272V82Z" fill="#FF8B61"/>
<path d="M141.797 46.8516C141.797 52.4505 140.807 57.3594 138.828 61.5781C136.849 65.7969 134.01 69.0521 130.312 71.3438C126.641 73.6354 122.422 74.7812 117.656 74.7812C112.943 74.7812 108.737 73.6484 105.039 71.3828C101.341 69.1172 98.4766 65.888 96.4453 61.6953C94.4141 57.4766 93.3854 52.6328 93.3594 47.1641V44.3516C93.3594 38.7526 94.362 33.8307 96.3672 29.5859C98.3984 25.3151 101.25 22.0469 104.922 19.7812C108.62 17.4896 112.839 16.3438 117.578 16.3438C122.318 16.3438 126.523 17.4896 130.195 19.7812C133.893 22.0469 136.745 25.3151 138.75 29.5859C140.781 33.8307 141.797 38.7396 141.797 44.3125V46.8516ZM129.922 44.2734C129.922 38.3099 128.854 33.7786 126.719 30.6797C124.583 27.5807 121.536 26.0312 117.578 26.0312C113.646 26.0312 110.612 27.5677 108.477 30.6406C106.341 33.6875 105.26 38.1667 105.234 44.0781V46.8516C105.234 52.6589 106.302 57.1641 108.438 60.3672C110.573 63.5703 113.646 65.1719 117.656 65.1719C121.589 65.1719 124.609 63.6354 126.719 60.5625C128.828 57.4635 129.896 52.9583 129.922 47.0469V44.2734ZM173.32 42.3203C171.784 42.112 170.43 42.0078 169.258 42.0078C164.987 42.0078 162.188 43.4531 160.859 46.3438V74H149.57V31.7344H160.234L160.547 36.7734C162.812 32.8932 165.951 30.9531 169.961 30.9531C171.211 30.9531 172.383 31.1224 173.477 31.4609L173.32 42.3203ZM201.68 62.3203C201.68 60.9401 200.99 59.8594 199.609 59.0781C198.255 58.2708 196.068 57.5547 193.047 56.9297C182.995 54.8203 177.969 50.5495 177.969 44.1172C177.969 40.3672 179.518 37.2422 182.617 34.7422C185.742 32.2161 189.818 30.9531 194.844 30.9531C200.208 30.9531 204.492 32.2161 207.695 34.7422C210.924 37.2682 212.539 40.5495 212.539 44.5859H201.25C201.25 42.9714 200.729 41.6432 199.688 40.6016C198.646 39.5339 197.018 39 194.805 39C192.904 39 191.432 39.4297 190.391 40.2891C189.349 41.1484 188.828 42.2422 188.828 43.5703C188.828 44.8203 189.414 45.8359 190.586 46.6172C191.784 47.3724 193.789 48.0365 196.602 48.6094C199.414 49.1562 201.784 49.7812 203.711 50.4844C209.674 52.6719 212.656 56.4609 212.656 61.8516C212.656 65.7057 211.003 68.8307 207.695 71.2266C204.388 73.5964 200.117 74.7812 194.883 74.7812C191.341 74.7812 188.19 74.1562 185.43 72.9062C182.695 71.6302 180.547 69.8984 178.984 67.7109C177.422 65.4974 176.641 63.1146 176.641 60.5625H187.344C187.448 62.5677 188.19 64.1042 189.57 65.1719C190.951 66.2396 192.799 66.7734 195.117 66.7734C197.279 66.7734 198.906 66.3698 200 65.5625C201.12 64.7292 201.68 63.6484 201.68 62.3203ZM218.203 52.4766C218.203 48.2839 219.01 44.5469 220.625 41.2656C222.24 37.9844 224.557 35.4453 227.578 33.6484C230.625 31.8516 234.154 30.9531 238.164 30.9531C243.867 30.9531 248.516 32.6979 252.109 36.1875C255.729 39.6771 257.747 44.4167 258.164 50.4062L258.242 53.2969C258.242 59.7812 256.432 64.9896 252.812 68.9219C249.193 72.8281 244.336 74.7812 238.242 74.7812C232.148 74.7812 227.279 72.8281 223.633 68.9219C220.013 65.0156 218.203 59.7031 218.203 52.9844V52.4766ZM229.492 53.2969C229.492 57.3073 230.247 60.3802 231.758 62.5156C233.268 64.625 235.43 65.6797 238.242 65.6797C240.977 65.6797 243.112 64.638 244.648 62.5547C246.185 60.4453 246.953 57.0859 246.953 52.4766C246.953 48.5443 246.185 45.4974 244.648 43.3359C243.112 41.1745 240.951 40.0938 238.164 40.0938C235.404 40.0938 233.268 41.1745 231.758 43.3359C230.247 45.4714 229.492 48.7917 229.492 53.2969ZM277.109 74H265.781V14H277.109V74ZM284.688 52.4766C284.688 48.2839 285.495 44.5469 287.109 41.2656C288.724 37.9844 291.042 35.4453 294.062 33.6484C297.109 31.8516 300.638 30.9531 304.648 30.9531C310.352 30.9531 315 32.6979 318.594 36.1875C322.214 39.6771 324.232 44.4167 324.648 50.4062L324.727 53.2969C324.727 59.7812 322.917 64.9896 319.297 68.9219C315.677 72.8281 310.82 74.7812 304.727 74.7812C298.633 74.7812 293.763 72.8281 290.117 68.9219C286.497 65.0156 284.688 59.7031 284.688 52.9844V52.4766ZM295.977 53.2969C295.977 57.3073 296.732 60.3802 298.242 62.5156C299.753 64.625 301.914 65.6797 304.727 65.6797C307.461 65.6797 309.596 64.638 311.133 62.5547C312.669 60.4453 313.438 57.0859 313.438 52.4766C313.438 48.5443 312.669 45.4974 311.133 43.3359C309.596 41.1745 307.435 40.0938 304.648 40.0938C301.888 40.0938 299.753 41.1745 298.242 43.3359C296.732 45.4714 295.977 48.7917 295.977 53.2969Z" fill="black"/>
</svg>
