<svg xmlns="http://www.w3.org/2000/svg" width="1240" height="1240"><path d="M602.5.663c-49.811 2.363-93.413 10.992-138.978 27.505-144.354 52.314-253.298 175.32-288.14 325.332-16.176 69.65-15.583 144.862 1.685 213.694 29.115 116.047 100.084 213.409 202.4 277.669 17.495 10.988 20.513 13.806 22.517 21.019.587 2.115 1.007 18.635 1.01 39.763.006 33.171.168 36.667 1.981 42.5 7.965 25.629 36.233 37.458 60.662 25.385 13.657-6.75 21.575-18.76 23.289-35.326 1.171-11.317 3.686-16.421 10.264-20.829 11.454-7.677 26.187-3.468 31.939 9.125 1.711 3.747 1.829 8.307 1.855 72 .016 38.759.442 70.532.992 73.887 5.004 30.557 38.446 46.035 65.372 30.255 9.178-5.379 17.118-16.937 19.537-28.441.73-3.469 1.115-21.749 1.115-52.934 0-46.274.06-47.759 2.09-51.952 6.514-13.458 24.681-16.41 35.253-5.729 4.439 4.485 5.725 7.88 6.723 17.749 1.209 11.942 5.49 21.063 13.393 28.538 23.249 21.987 61.19 12.421 70.595-17.8 1.779-5.715 1.946-9.401 1.946-42.981 0-41.492.336-44.042 6.655-50.548 4.68-4.82 8.86-6.544 15.863-6.544 6.05 0 10.327 1.692 14.821 5.864 4.361 4.048 5.719 7.516 7.25 18.509 1 7.181 2.305 11.954 4.488 16.407 5.939 12.118 17.779 20.827 31.88 23.449 17.203 3.199 36.739-6.734 44.803-22.78 4.193-8.345 5.24-14.463 5.24-30.632 0-16.729 1.021-20.878 6.48-26.337 6.005-6.005 8.742-6.48 37.337-6.48 14.778 0 27.262-.462 30.384-1.125 25.764-5.471 40.964-32.964 31.707-57.352-3.017-7.95-8.619-15.152-15.91-20.455-10.951-7.966-14.726-18.672-10.073-28.568 1.034-2.2 5.637-8.508 10.228-14.017 63.602-76.329 100.534-172.141 104.709-271.642.942-22.451-.011-52.121-2.307-71.841C1050.539 207.302 903.705 48.05 708.5 9.069c-33.603-6.71-74.081-9.92-106-8.406m150.806 174.822c-14.169 2.571-28.574 8.379-41.306 16.657-7.978 5.188-24.302 21.355-29.299 29.02l-3.692 5.663-6.108-1.425c-27.977-6.527-63.272-7.631-91.322-2.857C474.467 240.773 394.375 327.271 383.932 436c-1.411 14.699-.707 38.685 1.587 54 7.595 50.712 30.642 97.022 65.956 132.531 35.953 36.151 78.917 58.467 130.192 67.621 17.376 3.102 56.695 3.374 73.833.51 87.145-14.563 156.507-71.34 186.94-153.019 9.516-25.539 13.93-50.975 13.996-80.643.065-28.883-3.195-49.594-11.915-75.701l-4.409-13.201 7.541-7.299c4.148-4.014 9.752-10.224 12.455-13.799 6.81-9.01 14.334-24.611 17.603-36.5 2.509-9.127 2.75-11.528 2.763-27.5.013-14.764-.328-18.847-2.179-26.117-10.693-41.994-43.977-73.296-86.519-81.366-9.637-1.828-28.48-1.844-38.47-.032m5.997 43.563c-12.069 2.385-25.083 9.846-34.267 19.646-11.623 12.402-17.368 27.078-17.342 44.306.038 24.822 13.454 46.541 35.502 57.472 19.464 9.65 37.821 9.737 57.804.275 6.871-3.253 10.047-5.579 16.571-12.136 12.962-13.025 18.159-24.485 19.141-42.203.418-7.551.128-12.029-1.153-17.787-5.237-23.54-23.762-42.663-47.115-48.635-8.145-2.083-21.214-2.504-29.141-.938M606.5 264.084C504.62 270.991 426 355.237 426 457.5c0 88.316 59.987 165.494 145.706 187.461 17.286 4.43 26.098 5.45 47.294 5.477 33.861.042 58.191-5.533 87.087-19.957 19.665-9.816 31.794-18.47 48.283-34.448 23.403-22.677 38.712-47.046 49.065-78.099 7.489-22.464 9.073-33.258 9.018-61.434-.043-22.196-.25-24.96-2.759-36.767-1.492-7.021-4.093-17.077-5.781-22.346-2.811-8.775-3.251-9.528-5.241-8.965-5.039 1.424-21.657 3.566-27.672 3.566-9.144 0-24.09-2.414-33.504-5.411-29.923-9.527-54.918-32.97-66.688-62.548-5.219-13.114-7.116-23.751-7.218-40.457l-.09-14.928-3-.813c-11.487-3.115-37.103-4.893-54-3.747m2.605 150.499c-8.05 2.164-14.458 6.058-20.645 12.544-12.768 13.386-15.566 31.364-7.548 48.498 7.928 16.942 26.619 26.986 45.304 24.345 13.585-1.921 27.173-11.837 33.187-24.22 16.059-33.068-14.88-70.692-50.298-61.167m220.989 660.606c-23.635 27.916-43.489 57.415-51.551 76.594-4.763 11.333-5.876 17.112-5.311 27.592.861 15.971 6.968 29.485 18.497 40.931 12.838 12.746 27.551 18.913 45.271 18.976 12.128.043 19.956-1.724 29.964-6.764 27.214-13.705 41.699-45.991 32.657-72.792-4.874-14.447-14.553-31.662-29.771-52.952-10.626-14.865-29.889-38.715-31.973-39.585-.41-.172-3.912 3.428-7.783 8" fill="undefined" fill-rule="evenodd"/></svg>