<?xml version="1.0" encoding="UTF-8" standalone="no"?>
<svg
   xmlns:dc="http://purl.org/dc/elements/1.1/"
   xmlns:cc="http://creativecommons.org/ns#"
   xmlns:rdf="http://www.w3.org/1999/02/22-rdf-syntax-ns#"
   xmlns:svg="http://www.w3.org/2000/svg"
   xmlns="http://www.w3.org/2000/svg"
   xmlns:sodipodi="http://sodipodi.sourceforge.net/DTD/sodipodi-0.dtd"
   xmlns:inkscape="http://www.inkscape.org/namespaces/inkscape"
   viewBox="0 0 64 64"
   width="512px"
   height="512px"
   class=""
   version="1.1"
   id="svg13"
   sodipodi:docname="monster-dark.svg"
   inkscape:version="0.92.2 5c3e80d, 2017-08-06"
   inkscape:export-filename="/Users/danbs/dev/dan/free-saas/src/assets/monster-dark.png"
   inkscape:export-xdpi="75"
   inkscape:export-ydpi="75">
  <metadata
     id="metadata19">
    <rdf:RDF>
      <cc:Work
         rdf:about="">
        <dc:format>image/svg+xml</dc:format>
        <dc:type
           rdf:resource="http://purl.org/dc/dcmitype/StillImage" />
        <dc:title></dc:title>
      </cc:Work>
    </rdf:RDF>
  </metadata>
  <defs
     id="defs17" />
  <sodipodi:namedview
     pagecolor="#ffffff"
     bordercolor="#666666"
     borderopacity="1"
     objecttolerance="10"
     gridtolerance="10"
     guidetolerance="10"
     inkscape:pageopacity="0"
     inkscape:pageshadow="2"
     inkscape:window-width="1086"
     inkscape:window-height="678"
     id="namedview15"
     showgrid="false"
     inkscape:zoom="0.97900689"
     inkscape:cx="249.57608"
     inkscape:cy="256"
     inkscape:window-x="0"
     inkscape:window-y="0"
     inkscape:window-maximized="0"
     inkscape:current-layer="svg13" />
  <g
     id="g11">
    <g
       id="monster-6"
       data-name="monster">
      <path
         d="M45,58a3,3,0,0,1-6,0c0-1.66,3-5,3-5S45,56.34,45,58Z"
         data-original="#000000"
         class="active-path"
         data-old_color="#000000"
         fill="#FFFFFF"
         id="path2"
         style="fill:#253238;fill-opacity:1" />
      <path
         d="M39,14a2.991,2.991,0,0,0-2.817,1.984A2.817,2.817,0,0,0,36,17a3,3,0,0,0,3,3,2.963,2.963,0,0,0,1.373-.334A3,3,0,0,0,39,14Z"
         data-original="#000000"
         class="active-path"
         data-old_color="#000000"
         fill="#FFFFFF"
         id="path4"
         style="fill:#253238;fill-opacity:1" />
      <path
         d="M39,22a4.9,4.9,0,0,1-4.943-5.653A8.766,8.766,0,0,0,32,16.1a8.922,8.922,0,1,0,8.306,5.721A5.024,5.024,0,0,1,39,22Zm-7,5a2,2,0,1,1,2-2A2,2,0,0,1,32,27Z"
         data-original="#000000"
         class="active-path"
         data-old_color="#000000"
         fill="#FFFFFF"
         id="path6"
         style="fill:#253238;fill-opacity:1" />
      <path
         d="M48.061,40.3a1,1,0,0,1-.225-1.507,21,21,0,1,0-26.336,4.4,1,1,0,0,1,.5.866V47a2,2,0,0,0,4,0,1,1,0,0,1,2,0v6a2,2,0,0,0,4,0V49a1,1,0,0,1,2,0,2,2,0,0,0,4,0V46a1,1,0,0,1,2,0,2,2,0,0,0,4,0V45a1,1,0,0,1,1-1h2a2,2,0,0,0,1.061-3.7ZM42.089,20.917a10.879,10.879,0,1,1-7.374-6.472,4.991,4.991,0,1,1,7.374,6.472Z"
         data-original="#000000"
         class="active-path"
         data-old_color="#000000"
         fill="#FFFFFF"
         id="path8"
         style="fill:#253238;fill-opacity:1" />
    </g>
  </g>
</svg>
