<?xml version="1.0"?>
<svg xmlns="http://www.w3.org/2000/svg" viewBox="0 0 64 64" width="512px" height="512px" class=""><g><g id="monster-6" data-name="monster"><path d="M45,58a3,3,0,0,1-6,0c0-1.66,3-5,3-5S45,56.34,45,58Z" data-original="#000000" class="active-path" data-old_color="#000000" fill="#FFFFFF"/><path d="M39,14a2.991,2.991,0,0,0-2.817,1.984A2.817,2.817,0,0,0,36,17a3,3,0,0,0,3,3,2.963,2.963,0,0,0,1.373-.334A3,3,0,0,0,39,14Z" data-original="#000000" class="active-path" data-old_color="#000000" fill="#FFFFFF"/><path d="M39,22a4.9,4.9,0,0,1-4.943-5.653A8.766,8.766,0,0,0,32,16.1a8.922,8.922,0,1,0,8.306,5.721A5.024,5.024,0,0,1,39,22Zm-7,5a2,2,0,1,1,2-2A2,2,0,0,1,32,27Z" data-original="#000000" class="active-path" data-old_color="#000000" fill="#FFFFFF"/><path d="M48.061,40.3a1,1,0,0,1-.225-1.507,21,21,0,1,0-26.336,4.4,1,1,0,0,1,.5.866V47a2,2,0,0,0,4,0,1,1,0,0,1,2,0v6a2,2,0,0,0,4,0V49a1,1,0,0,1,2,0,2,2,0,0,0,4,0V46a1,1,0,0,1,2,0,2,2,0,0,0,4,0V45a1,1,0,0,1,1-1h2a2,2,0,0,0,1.061-3.7ZM42.089,20.917a10.879,10.879,0,1,1-7.374-6.472,4.991,4.991,0,1,1,7.374,6.472Z" data-original="#000000" class="active-path" data-old_color="#000000" fill="#FFFFFF"/></g></g> </svg>
